# ProBuilder 5.2.4
# https://unity3d.com/unity/features/worldbuilding/probuilder
# 7/16/2025 10:27:49 PM

mtllib ./SpikeBase.mtl
o SpikeBase

g Cube (6)
v 0 0 0
v -2 0 0
v -0.25 0.25 -0.25
v -1.75 0.25 -0.25
v -2 0 -2
v -1.75 0.25 -1.75
v 0 0 -2
v -0.25 0.25 -1.75

vt 0 0
vt -2 0
vt -0.25 0.3535534
vt -1.75 0.3535534
vt 1.414214 0
vt 1.414214 -2
vt 1.06066 -0.25
vt 1.06066 -1.75
vt 2 -1.414214
vt 0 -1.414214
vt 1.75 -1.06066
vt 0.25 -1.06066
vt 0 -2
vt 0.3535534 -1.75
vt 0.3535534 -0.25
vt 0.25 -0.25
vt 1.75 -0.25
vt 0.25 -1.75
vt 1.75 -1.75
vt -2 -2

vn 0 0.7071068 0.7071068
vn -0.7071068 0.7071068 0
vn 0 0.7071068 -0.7071068
vn 0.7071068 0.7071068 0
vn 0 1 0
vn 0 -1 0

usemtl SpikeBase
f 3/3/1 4/4/1 2/2/1 1/1/1
f 4/7/2 6/8/2 5/6/2 2/5/2
f 6/11/3 8/12/3 7/10/3 5/9/3
f 8/14/4 3/15/4 1/1/4 7/13/4
f 8/18/5 6/19/5 4/17/5 3/16/5
f 1/1/6 2/2/6 5/20/6 7/13/6

